<svg xmlns="http://www.w3.org/2000/svg" xmlns:xlink="http://www.w3.org/1999/xlink" width="500" zoomAndPan="magnify" viewBox="0 0 375 374.999991" height="500" preserveAspectRatio="xMidYMid meet" version="1.0"><defs><clipPath id="b238c225b0"><path d="M 19.140625 0 L 355.890625 0 L 355.890625 311 L 19.140625 311 Z M 19.140625 0 " clip-rule="nonzero"/></clipPath></defs><g clip-path="url(#b238c225b0)"><path fill="#f6f3f0" d="M 240.328125 278.414062 C 305.785156 266.628906 355.855469 209.035156 355.855469 140.316406 C 355.855469 63.15625 292.726562 0.0195312 215.558594 0.0195312 L 19.140625 0.0195312 L 75.261719 56.140625 L 215.558594 56.140625 C 261.859375 56.140625 299.734375 94.019531 299.734375 140.320312 C 299.734375 186.617188 261.859375 224.5 215.558594 224.5 L 187.503906 224.5 L 187.503906 310.175781 L 243.621094 277.777344 C 242.53125 278.003906 241.433594 278.214844 240.328125 278.414062 Z M 240.328125 278.414062 " fill-opacity="1" fill-rule="evenodd"/></g><path fill="#5c2fde" d="M 131.382812 280.613281 C 131.382812 243.207031 131.382812 205.792969 131.382812 168.378906 L 215.554688 168.378906 C 230.992188 168.378906 243.617188 155.757812 243.617188 140.320312 C 243.617188 124.886719 230.992188 112.261719 215.554688 112.261719 L 75.261719 112.261719 C 75.261719 168.378906 75.261719 224.5 75.261719 280.613281 L 75.261719 374.980469 L 131.378906 342.578125 L 131.378906 280.613281 Z M 131.382812 280.613281 " fill-opacity="1" fill-rule="evenodd"/></svg>